#N canvas 2596 809 1015 1026 12;
#X obj 162 16 bng 19 250 50 0 empty empty empty 0 -10 0 12 #fcfcfc #000000 #000000;
#X obj 162 61 t b b;
#X floatatom 322 60 5 0 0 0 pitch - - 0;
#X obj 350 99 s event-pitch;
#X obj 51 117 r event-pitch;
#X obj 51 146 osc~;
#X obj 152 224 vline~;
#X msg 153 152 1 5 \, 0.3 100 5 \, 0 200 105;
#X obj 109 262 *~;
#X obj 111 363 *~ 0.5;
#X obj 186 430 dac~;
#X obj 111 335 bp~ 20;
#X obj 229 195 r event-pitch;
#X obj 233 258 * 2.5;
#X obj 131 295 s~ envelope;
#X obj 245 302 +~;
#X obj 310 293 *~ 1000;
#X obj 353 249 r~ envelope;
#X connect 0 0 1 0;
#X connect 1 1 7 0;
#X connect 2 0 3 0;
#X connect 4 0 5 0;
#X connect 5 0 8 0;
#X connect 6 0 8 1;
#X connect 6 0 14 0;
#X connect 7 0 6 0;
#X connect 8 0 11 0;
#X connect 9 0 10 0;
#X connect 9 0 10 1;
#X connect 11 0 9 0;
#X connect 12 0 13 0;
#X connect 13 0 15 0;
#X connect 15 0 11 0;
#X connect 16 0 15 1;
#X connect 17 0 16 0;
