#N canvas 1174 300 2260 1556 12;
#X text 20 10 ============================================;
#X text 20 30 RANDOM ARPEGGIATOR;
#X text 19 104 ============================================;
#X obj 44 207 tgl 25 0 empty empty START/STOP 30 10 0 12 #fcfcfc #000000 #000000 0 1;
#X obj 44 289 random 6;
#X obj 44 370 t f f;
#X obj 44 420 mtof;
#X obj 44 460 osc~;
#X obj 44 512 *~;
#X obj 44 646 dac~;
#X obj 288 141 bng 25 250 50 0 empty empty NEW_CHORD 30 10 0 12 #fcfcfc #000000 #000000;
#X text 390 7 --- CHORD SELECT ---;
#X obj 90 473 line~;
#X floatatom 130 402 5 0 0 0 - - - 0;
#X obj 103 613 env~;
#X floatatom 103 645 5 0 0 0 - - - 0;
#X obj 44 577 *~ 0.1;
#X msg 90 433 0.6 10\\\, 0 300;
#X obj 44 247 metro 180;
#X obj 150 121 f;
#X obj 193 148 + 1;
#X obj 193 176 mod 6;
#X obj 193 205 sel 0;
#X obj 257 361 sel 0;
#X msg 257 397 0 10;
#X obj 289 180 random 6;
#X obj 288 221 sel 0 1 2 3 4 5;
#X text 415 51 comment;
#X obj 44 335 tabread Array_0;
#X msg 210 245 set Array_0;
#X msg 260 274 set Array_1;
#X msg 285 305 set Array_2;
#X msg 363 260 set Array_3;
#X msg 396 295 set Array_4;
#X msg 387 329 set Array_5;
#N canvas 342 342 450 221 (subpatch) 0;
#X array Array_0 6 float 3;
#A 0 40 43 47 52 55 59;
#A color 0;
#A width 2;
#X coords 0 127 6 0 200 140 1;
#X restore 763 103 graph;
#N canvas 342 342 450 221 (subpatch) 0;
#X array Array_1 6 float 3;
#A 0 47 50 54 59 62 66;
#A color 0;
#A width 2;
#X coords 0 127 6 0 200 140 1;
#X restore 974 103 graph;
#N canvas 342 342 450 221 (subpatch) 0;
#X array Array_2 6 float 3;
#A 0 42 45 49 54 57 61;
#A color 0;
#A width 2;
#X coords 0 127 6 0 200 140 1;
#X restore 1186 103 graph;
#N canvas 342 342 450 221 (subpatch) 0;
#X array Array_3 6 float 3;
#A 0 48 52 55 60 64 67;
#A color 0;
#A width 2;
#X coords 0 127 6 0 200 140 1;
#X restore 765 270 graph;
#N canvas 342 342 450 221 (subpatch) 0;
#X array Array_4 6 float 3;
#A 0 43 47 50 55 59 62;
#A color 0;
#A width 2;
#X coords 0 127 6 0 200 140 1;
#X restore 978 270 graph;
#N canvas 342 342 450 221 (subpatch) 0;
#X array Array_5 6 float 3;
#A 0 50 54 57 62 66 69;
#A color 0;
#A width 2;
#X coords 0 127 6 0 200 140 1;
#X restore 1190 271 graph;
#X text 19 86 Random Note Order (2 octaves);
#X text 19 60 E Mixolydian circle of fifths: E \, B \, F# \, C# \, G# \, D;
#X msg 513 109 \; Array_0 0 40 44 47 52 56 59;
#X msg 516 160 \; Array_1 0 47 51 54 59 63 66;
#X msg 516 214 \; Array_2 0 42 46 49 54 58 61;
#X msg 515 268 \; Array_3 0 49 53 56 61 65 68;
#X msg 517 319 \; Array_4 0 44 48 51 56 60 63;
#X msg 515 371 \; Array_5 0 50 54 57 62 66 69;
#X connect 3 0 18 0;
#X connect 3 0 23 0;
#X connect 4 0 28 0;
#X connect 5 0 6 0;
#X connect 5 1 17 0;
#X connect 5 1 13 0;
#X connect 6 0 7 0;
#X connect 7 0 8 0;
#X connect 8 0 16 0;
#X connect 10 0 25 0;
#X connect 12 0 8 1;
#X connect 14 0 15 0;
#X connect 16 0 14 0;
#X connect 16 0 9 0;
#X connect 16 0 9 1;
#X connect 17 0 12 0;
#X connect 18 0 4 0;
#X connect 18 0 19 0;
#X connect 19 0 20 0;
#X connect 20 0 19 1;
#X connect 20 0 21 0;
#X connect 21 0 22 0;
#X connect 22 0 10 0;
#X connect 23 0 24 0;
#X connect 24 0 12 0;
#X connect 25 0 26 0;
#X connect 26 0 29 0;
#X connect 26 1 30 0;
#X connect 26 2 31 0;
#X connect 26 3 32 0;
#X connect 26 4 33 0;
#X connect 26 5 34 0;
#X connect 28 0 5 0;
#X connect 29 0 28 0;
#X connect 30 0 28 0;
#X connect 31 0 28 0;
#X connect 32 0 28 0;
#X connect 33 0 28 0;
#X connect 34 0 28 0;
#X coords 0 0 0.5 0.5 0 0 0;
